<svg width="118" height="117" viewBox="0 0 118 117" fill="none" xmlns="http://www.w3.org/2000/svg">
<path d="M48.262 56.6279C45.902 56.6279 44.014 58.4999 44.014 60.8399C44.014 63.1799 45.902 65.0519 48.262 65.0519H52.51V60.8399C52.51 58.4999 50.622 56.6279 48.262 56.6279ZM70.918 56.6279C68.558 56.6279 66.67 58.4999 66.67 60.8399V65.0519H70.918C73.278 65.0519 75.166 63.1799 75.166 60.8399C75.166 58.4999 73.278 56.6279 70.918 56.6279Z" fill="white" fill-opacity="0.48"/>
<path d="M100.772 25.272V19.188C100.772 18.954 100.89 18.837 101.126 18.837H105.728C106.318 21.177 108.442 22.932 110.92 22.932C113.87 22.932 116.23 20.592 116.23 17.667C116.23 14.742 113.87 12.402 110.92 12.402C108.442 12.402 106.318 14.157 105.728 16.497H101.126C99.592 16.497 98.412 17.667 98.412 19.188V25.272C98.412 25.506 98.294 25.623 98.058 25.623H92.158C90.27 22.23 87.91 19.071 84.96 16.38C77.408 9.35996 67.614 5.84996 57.348 6.43496C44.25 7.25396 33.04 14.742 27.14 25.623H21.24C21.004 25.623 20.886 25.506 20.886 25.272V19.188C20.886 17.667 19.706 16.497 18.172 16.497H13.57C12.98 14.04 10.856 12.285 8.26001 12.285C5.31001 12.285 2.95001 14.625 2.95001 17.55C2.95001 20.475 5.31001 22.815 8.26001 22.815C10.738 22.815 12.862 21.06 13.452 18.72H18.054C18.29 18.72 18.408 18.837 18.408 19.071V25.155C18.408 26.676 19.588 27.846 21.122 27.846H25.842C24.19 31.473 23.128 35.334 22.774 39.429H13.452C12.862 37.089 10.738 35.334 8.26001 35.334C5.31001 35.334 2.95001 37.674 2.95001 40.599C2.95001 43.524 5.31001 45.864 8.26001 45.864C10.738 45.864 12.862 44.109 13.452 41.769H22.656C22.538 45.747 23.01 49.608 24.19 53.352H21.24C19.706 53.352 18.526 54.522 18.526 56.043V62.127C18.526 62.361 18.408 62.478 18.172 62.478H13.57C12.98 60.138 10.856 58.383 8.37801 58.383C5.42801 58.383 3.06801 60.723 3.06801 63.648C3.06801 66.573 5.42801 68.913 8.37801 68.913C10.856 68.913 12.98 67.158 13.57 64.818H18.172C19.706 64.818 20.886 63.648 20.886 62.127V56.043C20.886 55.809 21.004 55.692 21.24 55.692H25.016C26.314 59.085 28.084 62.361 30.444 65.286C33.748 69.615 36.58 74.763 38.704 80.496L40.238 84.708C41.182 87.165 43.188 89.154 45.666 89.973V93.015H41.89C41.182 93.015 40.71 93.483 40.71 94.185C40.71 94.887 41.182 95.355 41.89 95.355H45.666V98.397H41.89C41.182 98.397 40.71 98.865 40.71 99.567C40.71 100.269 41.182 100.737 41.89 100.737H45.666V101.907C45.666 104.247 47.554 106.236 50.032 106.236H51.92C52.51 109.863 55.578 112.437 59.472 112.437C61.478 112.437 63.366 111.618 64.782 110.214C65.962 109.161 66.67 107.757 66.906 106.236H68.912C71.272 106.236 73.278 104.364 73.278 101.907V100.737H77.054C77.762 100.737 78.234 100.269 78.234 99.567C78.234 98.865 77.762 98.397 77.054 98.397H73.278V95.355H77.054C77.762 95.355 78.234 94.887 78.234 94.185C78.234 93.483 77.762 93.015 77.054 93.015H73.278V90.09C75.874 89.271 77.998 87.282 78.942 84.708L80.476 80.73C81.184 78.858 81.892 76.986 82.718 75.231C84.488 71.604 86.494 68.211 88.736 65.286C91.096 62.361 92.866 59.085 94.164 55.575H97.94C98.176 55.575 98.294 55.692 98.294 55.926V62.01C98.294 63.531 99.474 64.701 101.008 64.701H105.61C106.2 67.041 108.324 68.796 110.802 68.796C113.752 68.796 116.112 66.456 116.112 63.531C116.112 60.606 113.752 58.266 110.802 58.266C108.324 58.266 106.2 60.021 105.61 62.361H101.008C100.772 62.361 100.654 62.244 100.654 62.01V55.926C100.654 54.405 99.474 53.235 97.94 53.235H94.99C95.934 49.959 96.524 46.449 96.524 42.822V41.652H105.728C106.318 43.992 108.442 45.747 110.92 45.747C113.87 45.747 116.23 43.407 116.23 40.482C116.23 37.557 113.87 35.217 110.92 35.217C108.442 35.217 106.318 36.972 105.728 39.312H96.406C96.052 35.334 94.99 31.356 93.338 27.729H98.058C99.474 27.963 100.772 26.676 100.772 25.272ZM63.13 108.576C62.186 109.512 60.888 110.097 59.354 110.097C56.876 110.097 54.87 108.459 54.28 106.236H64.546C64.31 107.055 63.838 107.874 63.13 108.576ZM70.918 67.275H66.67V88.218H64.31V67.275H54.87V88.218H52.51V67.275H48.262C44.604 67.275 41.654 64.35 41.654 60.723C41.654 57.096 44.604 54.171 48.262 54.171C51.92 54.171 54.87 57.096 54.87 60.723V64.935H64.31V60.84C64.31 57.213 67.26 54.288 70.918 54.288C74.576 54.288 77.526 57.213 77.526 60.84C77.526 64.35 74.576 67.275 70.918 67.275Z" fill="white" fill-opacity="0.48"/>
</svg>
