<svg width="150" height="128" viewBox="0 0 150 128" fill="none" xmlns="http://www.w3.org/2000/svg">
<path d="M30.0078 92.901L26.573 103.503C25.7395 106.075 30.3724 107.107 31.2035 104.546L34.6383 93.944C35.4659 91.394 30.8353 90.347 30.0078 92.901Z" fill="white" fill-opacity="0.4"/>
<path d="M146.403 116.998H10.4233L27.1044 65.998H31.5118C28.1514 70.927 30.2286 76.263 34.7032 79.455L32.1606 87.363C31.6989 88.814 33.2724 90.2 35.069 89.819L51.2883 86.376C51.7795 86.3107 52.2337 86.1187 52.5872 85.827L56.3554 82.711C59.7986 86.07 65.5445 87.943 71.5722 86.292C74.5428 90.556 79.1649 92.542 84.1948 92.542C88.7306 92.542 93.156 90.711 95.8401 87.487C102.452 88.114 110.599 84.625 112.871 82.351C119.381 84.746 124.726 87.518 146.373 87.731H146.4C149.554 87.731 149.581 83.761 146.428 83.731C114.603 83.421 112.911 75.573 97.5623 72.995L97.5467 72.994C91.8344 72.053 72.0699 73.511 63.4745 72.76C58.832 71.828 55.7102 68.111 56.3122 64.274V64.256C56.9299 61.113 59.3201 58.978 60.6537 58.7C60.6537 58.7 82.95 57.443 116.081 54.454C119.234 54.169 118.716 50.204 115.565 50.477L92.8502 52.526C104.24 43.106 109.986 38.343 111.2 37.339C122.761 39.809 146.398 46.688 146.398 46.688C149.086 46.688 149.734 43.522 147.173 42.794C138.137 40.224 127.629 36.879 115.155 34.067L131.75 20.342C132.852 19.423 132.589 18.147 131.718 17.477L119.277 7.553C118.34 6.801 116.827 6.832 115.926 7.582L92.7854 26.829C87.3958 25.018 79.845 24.202 77.5915 24.202C66.9345 24.202 52.7107 47.572 44.3612 55.875C42.3595 57.864 38.7556 59.596 35.5391 61.998H25.273C24.1913 61.998 23.2438 62.602 22.9584 63.472L4.96884 118.472C4.87209 118.769 4.85864 119.08 4.92954 119.382C5.00045 119.683 5.15379 119.968 5.37767 120.212C5.60155 120.456 5.88994 120.654 6.22046 120.791C6.55098 120.927 6.91474 120.998 7.28349 120.998H146.403C149.571 120.998 149.576 116.998 146.403 116.998ZM71.511 82.009L71.5074 82.011L71.5014 82.013C69.5953 82.8333 67.4107 83.0872 65.3082 82.7329C63.2057 82.3786 61.3109 81.4371 59.9365 80.064L63.899 76.787C65.4521 76.85 68.7862 76.915 76.3442 76.982C76.0138 78.0584 75.4118 79.0636 74.5784 79.9305C73.7449 80.7974 72.6991 81.506 71.511 82.009ZM49.6945 82.587L37.8537 85.1L40.9563 75.447L42.3919 74.259L51.0965 81.426L49.6945 82.587ZM51.5798 66.725C52.1243 70.051 54.8671 73.857 58.0092 75.71L54.5025 78.61L45.7979 71.443C52.5284 65.876 50.7714 67.296 51.5798 66.725ZM75.8333 84.444C78.7079 82.6388 80.6429 79.9831 81.2397 77.024L91.6893 77.111C92.8718 79.394 93.9128 82.086 92.554 84.302C88.8253 89.98 79.6243 89.894 75.8333 84.444ZM97.8909 83.558C98.2639 81.543 97.6846 78.987 96.8751 77.067C98.439 77.044 106.462 79.997 108.038 80.57C105.28 82.228 101.079 83.439 97.8909 83.558ZM117.655 11.793L126.629 18.948C101.492 39.738 110.394 32.388 85.249 53.183C82.3539 53.303 73.4347 53.69 66.7186 54.141C73.545 48.494 62.6685 57.529 117.655 11.793ZM48.0358 58.445C55.1321 51.39 70.5851 28.202 77.5915 28.202C79.394 28.202 84.7117 28.81 89.0316 29.952C60.5566 53.637 76.3766 40.519 37.1198 72.987C36.5165 73.485 36.3954 74.188 36.1783 74.864C35.0222 73.483 33.9536 71.362 35.1433 68.889C37.2169 64.578 44.2832 62.179 48.0358 58.445Z" fill="white" fill-opacity="0.4"/>
</svg>
