<svg width="86" height="86" viewBox="0 0 86 86" fill="none" xmlns="http://www.w3.org/2000/svg">
<path d="M85.5127 41.4233L74.5333 24.94V8.6C74.5333 6.31914 73.6273 4.13169 72.0145 2.51888C70.4016 0.906069 68.2142 0 65.9333 0H8.6C6.31914 0 4.13169 0.906069 2.51888 2.51888C0.906069 4.13169 0 6.31914 0 8.6V77.4C0 79.6809 0.906069 81.8683 2.51888 83.4811C4.13169 85.0939 6.31914 86 8.6 86H77.4C79.6809 86 81.8683 85.0939 83.4811 83.4811C85.0939 81.8683 86 79.6809 86 77.4V43C85.9956 42.438 85.8261 41.8898 85.5127 41.4233ZM8.6 5.73333H65.9333C66.6936 5.73333 67.4228 6.03536 67.9604 6.57296C68.498 7.11056 68.8 7.83971 68.8 8.6V22.9333H5.73333V8.6C5.73333 7.83971 6.03536 7.11056 6.57296 6.57296C7.11056 6.03536 7.83971 5.73333 8.6 5.73333ZM68.8 80.2667H17.2V60.2C17.2 59.4397 17.502 58.7106 18.0396 58.173C18.5772 57.6354 19.3064 57.3333 20.0667 57.3333H65.9333C66.6936 57.3333 67.4228 57.6354 67.9604 58.173C68.498 58.7106 68.8 59.4397 68.8 60.2V80.2667ZM80.2667 77.4C80.2667 78.1603 79.9646 78.8894 79.427 79.427C78.8894 79.9646 78.1603 80.2667 77.4 80.2667H74.5333V60.2C74.5333 57.9191 73.6273 55.7317 72.0145 54.1189C70.4016 52.5061 68.2142 51.6 65.9333 51.6H20.0667C17.7858 51.6 15.5984 52.5061 13.9855 54.1189C12.3727 55.7317 11.4667 57.9191 11.4667 60.2V80.2667H8.6C7.83971 80.2667 7.11056 79.9646 6.57296 79.427C6.03536 78.8894 5.73333 78.1603 5.73333 77.4V28.6667H70.1187L80.2667 43.86V77.4Z" fill="white" fill-opacity="0.4"/>
</svg>
