<svg width="106" height="106" viewBox="0 0 106 106" fill="none" xmlns="http://www.w3.org/2000/svg">
<path fill-rule="evenodd" clip-rule="evenodd" d="M53 106C82.2719 106 106 82.2719 106 53C106 23.7281 82.2719 0 53 0C23.7281 0 0 23.7281 0 53C0 82.2719 23.7281 106 53 106ZM47.2442 59.7628C46.799 62.7308 49.3218 65.1794 52.3216 65.1794H54.8126C55.5203 65.1795 56.2015 64.9098 56.7174 64.4254C57.2334 63.941 57.5453 63.2781 57.5898 62.5718C57.8919 59.784 59.0897 57.346 61.1726 55.2631L64.5116 51.9771C67.1192 49.3536 68.9424 46.9739 69.9865 44.838C71.0306 42.6703 71.55 40.3754 71.55 37.9533C71.55 32.6268 69.9441 28.5087 66.7323 25.6043C63.5205 22.6681 59.0049 21.2 53.1855 21.2C47.4191 21.2 42.8664 22.737 39.5115 25.8163C37.5257 27.6583 36.0737 30.002 35.3086 32.6003C34.3334 35.8015 37.2166 38.5946 40.5556 38.5946C43.3858 38.5946 45.5005 36.2891 47.4668 34.1426C47.7424 33.8405 48.0127 33.5384 48.283 33.2522C49.5232 31.9431 51.1556 31.2912 53.1855 31.2912C57.4679 31.2912 59.6091 33.6974 59.6091 38.5098C59.6091 40.1051 59.1957 41.6315 58.3742 43.0837C57.5527 44.5094 55.8885 46.375 53.3922 48.6805C50.9224 50.9595 49.2211 53.2862 48.283 55.65C47.8219 56.8213 47.4774 58.194 47.2442 59.7628ZM47.5463 73.6011C46.3114 74.8254 45.6913 76.3942 45.6913 78.3022C45.6913 80.1837 46.2955 81.7366 47.5039 82.9662C48.7388 84.1852 50.3606 84.8 52.364 84.8C54.3674 84.8 55.968 84.1852 57.1817 82.9609C58.4166 81.7366 59.0367 80.1837 59.0367 78.3022C59.0367 76.3942 58.4007 74.8254 57.1393 73.6011C55.9044 72.345 54.3091 71.7196 52.364 71.7196C50.4136 71.7196 48.813 72.345 47.5463 73.6011Z" fill="white" fill-opacity="0.4"/>
</svg>
