<svg width="112" height="114" viewBox="0 0 112 114" fill="none" xmlns="http://www.w3.org/2000/svg">
<path d="M57 0C72.0993 0 86.6343 5.9847 97.2933 16.7002C108.009 27.4213 114 41.8929 114 57.0541C114 77.0031 103.506 95.5272 86.4063 105.844C69.3063 116.16 48.0453 116.73 30.381 107.326H30.2043C28.5 106.642 27.1263 105.445 25.5303 104.647C23.769 103.906 21.7683 103.792 19.95 104.367C15.7263 105.844 11.4513 107.041 7.0623 108.067C4.7823 108.124 4.0983 106.756 4.0983 104.533C5.1243 100.03 6.4923 95.5785 8.094 91.2524C8.7153 89.3715 8.55 87.3766 7.581 85.604L6.441 83.3868C2.2173 75.3502 0 66.4016 0 57.3448V56.9971C0 41.8929 5.9793 27.3586 16.6953 16.7002C27.4113 5.9847 41.8893 0 57 0ZM83.2713 49.7585C79.2813 49.7585 75.981 53.0073 75.981 57.0541C75.981 61.0439 79.2813 64.3497 83.2713 64.3497C87.3183 64.3497 90.5673 61.0439 90.5673 57.0541C90.5673 53.0073 87.3183 49.7585 83.2713 49.7585ZM57 49.7585C52.953 49.7585 49.6983 53.0073 49.6983 57.0541C49.6983 61.0439 52.953 64.3497 57 64.3497C61.047 64.3497 64.2903 61.0439 64.2903 57.0541C64.2903 53.0073 61.047 49.7585 57 49.7585ZM30.7173 49.7585C26.6703 49.7585 23.4213 53.0073 23.4213 57.0541C23.4213 61.0439 26.6703 64.3497 30.7173 64.3497C34.7073 64.3497 38.019 61.0439 38.019 57.0541C38.019 53.0073 34.7073 49.7585 30.7173 49.7585Z" fill="white" fill-opacity="0.34"/>
</svg>
