<svg width="127" height="107" viewBox="0 0 127 107" fill="none" xmlns="http://www.w3.org/2000/svg">
<path d="M105.623 23.3725H98.124V17.4377C98.1706 15.0642 97.0866 12.7721 95.1097 11.064C93.1327 9.35594 90.4242 8.37117 87.5778 8.32561H81.9023C81.4116 6.00244 79.9547 3.89777 77.7877 2.38132C75.6207 0.864867 72.8821 0.0336304 70.053 0.0336304C67.2239 0.0336304 64.4854 0.864867 62.3183 2.38132C60.1513 3.89777 58.6945 6.00244 58.2037 8.32561H24.4572C21.6108 8.37117 18.9022 9.35595 16.9253 11.0641C14.9484 12.7722 13.8643 15.0642 13.9109 17.4377V82.8074C13.8643 85.1808 14.9484 87.4729 16.9253 89.181C18.9022 90.8891 21.6108 91.8739 24.4572 91.9194H31.9566V97.8542C31.91 100.228 32.994 102.52 34.971 104.228C36.9479 105.936 39.6565 106.921 42.5028 106.966H105.623C108.47 106.921 111.178 105.936 113.155 104.228C115.132 102.52 116.216 100.228 116.17 97.8542V32.4845C116.216 30.1111 115.132 27.819 113.155 26.111C111.178 24.4029 108.47 23.4181 105.623 23.3725ZM70.053 6.65378C71.1065 6.66653 72.1117 7.02444 72.8512 7.65014C73.5908 8.27585 74.0054 9.11909 74.0054 9.99761C74.0053 10.8761 73.5907 11.7194 72.8511 12.345C72.1115 12.9707 71.1063 13.3286 70.0528 13.3413C68.9993 13.3285 67.9942 12.9706 67.2546 12.3449C66.515 11.7192 66.1004 10.876 66.1005 9.99746C66.1005 9.11894 66.5151 8.27572 67.2547 7.65004C67.9943 7.02436 68.9995 6.66649 70.053 6.65378ZM24.4572 85.2319C23.7382 85.1862 23.0698 84.9061 22.597 84.4522C22.1241 83.9983 21.8849 83.4073 21.9312 82.8074V17.4377C21.8849 16.8377 22.1241 16.2467 22.597 15.7928C23.0698 15.3389 23.7382 15.0588 24.4572 15.0131H58.3672L51.1771 21.0084C50.4432 21.6385 50.0362 22.4841 50.0439 23.3624C50.0516 24.2407 50.4735 25.0812 51.2184 25.7023C51.9633 26.3234 52.9713 26.6751 54.0247 26.6815C55.0781 26.6879 56.0922 26.3485 56.8478 25.7365L64.879 19.0399C67.6097 20.1111 70.7221 20.2918 73.6045 19.5467C76.4869 18.8015 78.9307 17.1843 80.4557 15.013L87.5777 15.0131C88.2967 15.0588 88.9651 15.3389 89.438 15.7928C89.9108 16.2467 90.15 16.8377 90.1037 17.4377V82.8074C90.15 83.4073 89.9108 83.9983 89.438 84.4522C88.9651 84.9061 88.2968 85.1862 87.5778 85.2319H24.4572ZM108.149 97.8542C108.196 98.4542 107.956 99.0452 107.484 99.4991C107.011 99.9529 106.342 100.233 105.623 100.279H42.5028C41.7839 100.233 41.1155 99.9529 40.6427 99.4991C40.1698 99.0452 39.9306 98.4542 39.9769 97.8542V91.9194H87.5778C90.4242 91.8739 93.1327 90.8891 95.1097 89.181C97.0866 87.4729 98.1706 85.1808 98.124 82.8074V30.06H105.623C106.342 30.1057 107.011 30.3859 107.484 30.8397C107.956 31.2936 108.196 31.8846 108.149 32.4845V97.8542Z" fill="white" fill-opacity="0.4"/>
<path d="M78.0735 38.4194H33.9617C32.9082 38.4322 31.9031 38.7901 31.1635 39.4158C30.4239 40.0415 30.0093 40.8847 30.0093 41.7633C30.0094 42.6418 30.424 43.485 31.1636 44.1107C31.9032 44.7364 32.9084 45.0942 33.9619 45.1069H78.0735C79.127 45.0942 80.1322 44.7363 80.8718 44.1106C81.6114 43.4849 82.026 42.6417 82.026 41.7632C82.026 40.8847 81.6114 40.0414 80.8718 39.4157C80.1322 38.7901 79.127 38.4322 78.0735 38.4194ZM78.0735 55.1382H33.9617C32.9082 55.1509 31.9031 55.5088 31.1635 56.1345C30.4239 56.7602 30.0093 57.6035 30.0093 58.482C30.0094 59.3605 30.424 60.2038 31.1636 60.8294C31.9032 61.4551 32.9084 61.813 33.9619 61.8257H78.0735C79.127 61.813 80.1322 61.4551 80.8718 60.8294C81.6114 60.2037 82.026 59.3605 82.026 58.4819C82.026 57.6034 81.6114 56.7602 80.8718 56.1345C80.1322 55.5088 79.127 55.1509 78.0735 55.1382ZM78.0735 70.1851C77.0195 70.1972 76.0137 70.5548 75.2735 71.1806C74.5333 71.8064 74.1183 72.65 74.1183 73.5289C74.1184 74.4078 74.5334 75.2514 75.2736 75.8771C76.0138 76.5029 77.0197 76.8605 78.0737 76.8726C79.1277 76.8604 80.1336 76.5028 80.8737 75.877C81.6139 75.2513 82.0289 74.4077 82.0289 73.5287C82.0289 72.6498 81.6138 71.8062 80.8736 71.1805C80.1334 70.5548 79.1275 70.1972 78.0735 70.1851ZM62.0329 70.1851C60.9794 70.1978 59.9742 70.5557 59.2346 71.1814C58.495 71.8071 58.0805 72.6504 58.0805 73.5289C58.0805 74.4074 58.4951 75.2506 59.2348 75.8763C59.9744 76.502 60.9796 76.8599 62.0331 76.8726C63.0865 76.8598 64.0917 76.5019 64.8313 75.8762C65.5709 75.2505 65.9855 74.4073 65.9854 73.5287C65.9854 72.6502 65.5708 71.807 64.8312 71.1813C64.0916 70.5556 63.0864 70.1978 62.0329 70.1851Z" fill="white" fill-opacity="0.4"/>
</svg>
