<svg width="121" height="121" viewBox="0 0 121 121" fill="none" xmlns="http://www.w3.org/2000/svg">
<g clip-path="url(#clip0_1_272)">
<path d="M100.281 40.7274V48.3115C100.281 49.291 99.898 50.2305 99.2171 50.9232C98.5362 51.6159 97.6128 52.005 96.6498 52.005C95.6869 52.005 94.7634 51.6159 94.0825 50.9232C93.4016 50.2305 93.0191 49.291 93.0191 48.3115V40.7274H55.3322V48.3115C55.3322 49.291 54.9497 50.2305 54.2688 50.9232C53.5879 51.6159 52.6644 52.005 51.7015 52.005C50.7386 52.005 49.8151 51.6159 49.1342 50.9232C48.4533 50.2305 48.0708 49.291 48.0708 48.3115V40.7274H30.3286V121H121.048V40.7274H100.281ZM102.701 69.0199L69.25 103.074C68.5692 103.766 67.6464 104.154 66.6843 104.154C65.7221 104.154 64.7993 103.766 64.1186 103.074L46.3764 85.0251C45.7024 84.3295 45.3245 83.3919 45.3245 82.4151C45.3245 81.4382 45.7024 80.5006 46.3764 79.805C46.7119 79.4595 47.1114 79.1852 47.5518 78.9981C47.9922 78.8109 48.4648 78.7145 48.9421 78.7145C49.4195 78.7145 49.892 78.8109 50.3325 78.9981C50.7729 79.1852 51.1724 79.4595 51.5078 79.805L66.6843 95.2193L97.5938 63.775C97.9295 63.4192 98.3316 63.1353 98.7767 62.9398C99.2218 62.7444 99.7007 62.6414 100.185 62.6369C100.67 62.6324 101.151 62.7265 101.599 62.9137C102.048 63.1009 102.455 63.3774 102.797 63.7269C103.139 64.0764 103.409 64.4919 103.591 64.9491C103.773 65.4062 103.863 65.8957 103.856 66.3887C103.85 66.8818 103.746 67.3686 103.552 67.8204C103.358 68.2723 103.077 68.6801 102.725 69.0199H102.701ZM24.6405 121L12.3203 112.825L0 121V40.7274H24.6405V121ZM100.281 26.5443V40.7274H93.0191V26.5443C93.01 22.7448 91.8947 19.0332 89.814 15.8779C87.7333 12.7226 84.7805 10.2651 81.3282 8.81533C78.468 7.62302 75.3633 7.16527 72.2881 7.48248C69.2129 7.79969 66.2617 8.8821 63.695 10.6342C61.1283 12.3863 59.025 14.7542 57.5707 17.5289C56.1165 20.3036 55.356 23.3998 55.3564 26.5443V40.7274H48.095V26.5443C48.1003 20.5962 50.0656 14.8216 53.6768 10.1436C57.288 5.4656 62.3366 2.15424 68.0155 0.738815C70.02 0.242064 72.0762 -0.005976 74.1393 0.000109298C81.064 9.72193e-05 87.7058 2.79513 92.6069 7.77172C97.5079 12.7483 100.268 19.4998 100.281 26.5443Z" fill="white" fill-opacity="0.4"/>
<path d="M84.3781 44.3962C83.4152 44.3962 82.4917 44.0071 81.8108 43.3144C81.1299 42.6217 80.7474 41.6823 80.7474 40.7027V26.5442C80.7474 21.4634 78.7634 16.5907 75.2318 12.998C71.7003 9.40539 66.9104 7.38706 61.916 7.38706C56.9217 7.38706 52.1318 9.40539 48.6003 12.998C45.0687 16.5907 43.0847 21.4634 43.0847 26.5442V40.7027C43.0847 41.6823 42.7022 42.6217 42.0213 43.3144C41.3404 44.0071 40.4169 44.3962 39.454 44.3962C38.491 44.3962 37.5675 44.0071 36.8867 43.3144C36.2058 42.6217 35.8232 41.6823 35.8232 40.7027V26.5442C35.8232 19.5042 38.5723 12.7526 43.4656 7.7746C48.359 2.79661 54.9958 0 61.916 0C68.8363 0 75.4731 2.79661 80.3664 7.7746C85.2598 12.7526 88.0088 19.5042 88.0088 26.5442V40.7027C88.0088 41.6823 87.6263 42.6217 86.9454 43.3144C86.2645 44.0071 85.341 44.3962 84.3781 44.3962Z" fill="white" fill-opacity="0.4"/>
</g>
<defs>
<clipPath id="clip0_1_272">
<rect width="121" height="121" fill="white"/>
</clipPath>
</defs>
</svg>
